<svg enable-background="new 0 0 225 211.5" fill="#ffc0cb" viewBox="0 0 225 211.5" xmlns="http://www.w3.org/2000/svg"><path d="m150.3 1.6c43.4 0 77.6 36.9 74.1 79.9-.7 9-3.1 17.7-6.7 26-3.8 8.9-5.3 18-3 27.6.5 2.3.9 4.6 1.2 6.9 2.7 17.9-1.3 34.2-13 48.1-12.5 14.9-28.8 22-48.1 21-14.6-.7-29.2-2-43.8-3.8-28.4-3.6-52-25.9-57.7-54-1.3-6.3-2-12.7-3.3-18.9-1.5-7.7-6.3-12-14-13.2-3.6-.5-7.3-.8-10.9-1.5-17.4-3.3-27.6-19.6-22.5-36.5 2.7-8.9 9.1-14.8 17.6-18.3 2.8-1.2 5.8-2.1 8.7-3 6.9-2 11.9-6.4 16-12.1 4.2-5.8 8.3-11.7 13.9-16.3 7.2-5.8 15.5-9.2 24.4-10.8 10-1.8 19.2-5.2 27.9-10.3 13.5-7.5 25.7-10.8 39.2-10.8z"/></svg>