<svg enable-background="new 0 0 372.3 272.5" viewBox="0 0 372.3 272.5" xmlns="http://www.w3.org/2000/svg"><path d="m1.2 142.2c.5-29.9 9.3-53 26-73.4 8.4-10.3 15.7-21.4 23.9-31.8 29.6-37.9 79-46.4 120.8-21.5 13.7 8.2 28.2 14.8 42.5 22 6.2 3.1 12.8 3.3 19.4 1.5 17-4.5 34.1-6 51.4-1.4 4.1 1.1 8 2.7 12 3.9 9.5 2.8 18.9 6.2 28.6 8.2 40.4 8.6 57.6 51 34.5 85.3-5.9 8.7-11 18-15.6 27.4-12 24.1-30.4 40.7-56.1 48.5-11.9 3.6-20.1 10-26.1 21-14 26-36.3 39.2-66 39-16.7-.1-31.5-6.4-44.4-16.8-8.3-6.7-17.3-9.1-27.8-7.8-29.4 3.6-56.4-3-80.1-21.1-28.4-21.7-42.2-51-43-83z"/></svg>