<?xml version="1.0" encoding="utf-8"?>
<!-- Generator: Adobe Illustrator 22.0.0, SVG Export Plug-In . SVG Version: 6.00 Build 0)  -->
<svg version="1.1" id="blobber" fill="#ffc0cb" xmlns="http://www.w3.org/2000/svg" xmlns:xlink="http://www.w3.org/1999/xlink" x="0px" y="0px"
	 viewBox="0 0 225 211.5" style="enable-background:new 0 0 225 211.5;" xml:space="preserve">
<g id="pr3zww.tif">
	<g>
		<g>
			<path d="M150.3,1.6c43.4,0,77.6,36.9,74.1,79.9c-0.7,9-3.1,17.7-6.7,26c-3.8,8.9-5.3,18-3,27.6c0.5,2.3,0.9,4.6,1.2,6.9
				c2.7,17.9-1.3,34.2-13,48.1c-12.5,14.9-28.8,22-48.1,21c-14.6-0.7-29.2-2-43.8-3.8c-28.4-3.6-52-25.9-57.7-54
				c-1.3-6.3-2-12.7-3.3-18.9c-1.5-7.7-6.3-12-14-13.2c-3.6-0.5-7.3-0.8-10.9-1.5C7.7,116.4-2.5,100.1,2.6,83.2
				c2.7-8.9,9.1-14.8,17.6-18.3c2.8-1.2,5.8-2.1,8.7-3c6.9-2,11.9-6.4,16-12.1c4.2-5.8,8.3-11.7,13.9-16.3
				c7.2-5.8,15.5-9.2,24.4-10.8c10-1.8,19.2-5.2,27.9-10.3C124.6,4.9,136.8,1.6,150.3,1.6z"/>
		</g>
	</g>
</g>
</svg>
