<?xml version="1.0" encoding="utf-8"?>
<!-- Generator: Adobe Illustrator 22.0.0, SVG Export Plug-In . SVG Version: 6.00 Build 0)  -->
<svg version="1.1" id="blobber" fill="#ffdd3d" xmlns="http://www.w3.org/2000/svg" xmlns:xlink="http://www.w3.org/1999/xlink" x="0px" y="0px"
	 viewBox="0 0 372.3 272.5" style="enable-background:new 0 0 372.3 272.5;" xml:space="preserve">
<g id="ska7eT.tif">
	<g>
		<g>
			<path d="M1.2,142.2c0.5-29.9,9.3-53,26-73.4C35.6,58.5,42.9,47.4,51.1,37C80.7-0.9,130.1-9.4,171.9,15.5
				c13.7,8.2,28.2,14.8,42.5,22c6.2,3.1,12.8,3.3,19.4,1.5c17-4.5,34.1-6,51.4-1.4c4.1,1.1,8,2.7,12,3.9c9.5,2.8,18.9,6.2,28.6,8.2
				c40.4,8.6,57.6,51,34.5,85.3c-5.9,8.7-11,18-15.6,27.4c-12,24.1-30.4,40.7-56.1,48.5c-11.9,3.6-20.1,10-26.1,21
				c-14,26-36.3,39.2-66,39c-16.7-0.1-31.5-6.4-44.4-16.8c-8.3-6.7-17.3-9.1-27.8-7.8c-29.4,3.6-56.4-3-80.1-21.1
				C15.8,203.5,2,174.2,1.2,142.2z"/>
		</g>
	</g>
</g>
</svg>
